<svg width="50" height="50" viewBox="0 0 50 50" fill="none" xmlns="http://www.w3.org/2000/svg">
<circle cx="24.9008" cy="24.8095" r="24.7372" fill="#FB5607"/>
<path d="M18.3217 20.9286L18.3017 18.8086H9.78166V26.2086C10.7217 26.1086 12.6217 26.0286 13.4617 26.0286C15.2617 26.0286 16.3617 26.9086 16.3617 28.3286C16.3617 29.9086 15.2617 30.8486 13.4417 30.8486C12.1817 30.8486 10.7817 30.3086 9.66166 29.3686L8.72166 31.2886C10.1017 32.2486 12.0417 32.8886 13.7017 32.8886C16.8417 32.8886 18.8817 31.0286 18.8817 28.1886C18.8817 25.7286 16.9217 23.9286 13.8817 23.9286L11.9617 23.9486V20.9286H18.3217ZM25.6446 27.9286L28.7646 32.8086H31.4846L27.2446 26.2886L31.1846 22.1686H28.5446L23.8446 26.9286V17.9686H21.5446V32.8086H23.8446V29.8286L25.6446 27.9286ZM40.8992 27.1086V25.5286H37.3792V22.0286H35.8792V25.5286H32.3392V27.1086H35.8792V30.6086H37.3792V27.1086H40.8992Z" fill="white"/>
</svg>
